<?xml version="1.0" encoding="UTF-8" standalone="no"?>
<svg
   xmlns:dc="http://purl.org/dc/elements/1.1/"
   xmlns:cc="http://creativecommons.org/ns#"
   xmlns:rdf="http://www.w3.org/1999/02/22-rdf-syntax-ns#"
   xmlns:svg="http://www.w3.org/2000/svg"
   xmlns="http://www.w3.org/2000/svg"
   xmlns:xlink="http://www.w3.org/1999/xlink"
   width="106.51292mm"
   height="117.66324mm"
   viewBox="0 0 106.51291 117.66324"
   version="1.1"
   id="svg8">
  <defs
     id="defs2">
    <linearGradient
       id="linearGradient4671">
      <stop
         style="stop-color:#ffd43b;stop-opacity:1;"
         offset="0"
         id="stop4673" />
      <stop
         style="stop-color:#ffe873;stop-opacity:1"
         offset="1"
         id="stop4675" />
    </linearGradient>
    <linearGradient
       id="linearGradient4689">
      <stop
         style="stop-color:#5a9fd4;stop-opacity:1;"
         offset="0"
         id="stop4691" />
      <stop
         style="stop-color:#306998;stop-opacity:1;"
         offset="1"
         id="stop4693" />
    </linearGradient>
    <clipPath
       clipPathUnits="userSpaceOnUse"
       id="clipPath1144">
      <g
         id="use1146"
         style="stroke:#000000;stroke-width:3.02362;stroke-miterlimit:4;stroke-dasharray:none;stroke-opacity:1">
        <g
           id="g2562"
           transform="translate(-1.6,0.79999999)"
           style="stroke:#000000;stroke-width:3.02362;stroke-miterlimit:4;stroke-dasharray:none;stroke-opacity:1">
          <path
             style="fill:url(#linearGradient2566);fill-opacity:1;stroke:#000000;stroke-width:3.02362;stroke-miterlimit:4;stroke-dasharray:none;stroke-opacity:1"
             d="m 60.510156,6.3979729 c -4.583653,0.021298 -8.960939,0.4122177 -12.8125,1.09375 C 36.35144,9.4962267 34.291407,13.691825 34.291406,21.429223 v 10.21875 h 26.8125 v 3.40625 h -26.8125 -10.0625 c -7.792459,0 -14.6157592,4.683717 -16.7500002,13.59375 -2.46182,10.212966 -2.5710151,16.586023 0,27.25 1.9059283,7.937852 6.4575432,13.593748 14.2500002,13.59375 h 9.21875 v -12.25 c 0,-8.849902 7.657144,-16.656248 16.75,-16.65625 h 26.78125 c 7.454951,0 13.406253,-6.138164 13.40625,-13.625 v -25.53125 c 0,-7.266339 -6.12998,-12.7247775 -13.40625,-13.9375001 -4.605987,-0.7667253 -9.385097,-1.1150483 -13.96875,-1.09375 z m -14.5,8.2187501 c 2.769547,0 5.03125,2.298646 5.03125,5.125 -2e-6,2.816336 -2.261703,5.09375 -5.03125,5.09375 -2.779476,-1e-6 -5.03125,-2.277415 -5.03125,-5.09375 -1e-6,-2.826353 2.251774,-5.125 5.03125,-5.125 z"
             id="path2558" />
          <path
             style="fill:url(#linearGradient2568);fill-opacity:1;stroke:#000000;stroke-width:3.02362;stroke-miterlimit:4;stroke-dasharray:none;stroke-opacity:1"
             d="m 91.228906,35.054223 v 11.90625 c 0,9.230755 -7.825895,16.999999 -16.75,17 h -26.78125 c -7.335833,0 -13.406249,6.278483 -13.40625,13.625 v 25.531247 c 0,7.26634 6.318588,11.54032 13.40625,13.625 8.487331,2.49561 16.626237,2.94663 26.78125,0 6.750155,-1.95439 13.406253,-5.88761 13.40625,-13.625 V 92.897973 h -26.78125 v -3.40625 h 26.78125 13.406254 c 7.79246,0 10.69625,-5.435408 13.40624,-13.59375 2.79933,-8.398886 2.68022,-16.475776 0,-27.25 -1.92578,-7.757441 -5.60387,-13.59375 -13.40624,-13.59375 z m -15.0625,64.65625 c 2.779478,3e-6 5.03125,2.277417 5.03125,5.093747 -2e-6,2.82635 -2.251775,5.125 -5.03125,5.125 -2.76955,0 -5.03125,-2.29865 -5.03125,-5.125 2e-6,-2.81633 2.261697,-5.093747 5.03125,-5.093747 z"
             id="path2560" />
        </g>
      </g>
    </clipPath>
    <mask
       maskUnits="userSpaceOnUse"
       id="mask1257">
      <rect
         style="fill:#ffffff;fill-opacity:1;stroke:#000000;stroke-width:0.377953;stroke-miterlimit:4;stroke-dasharray:none;stroke-opacity:1"
         id="rect1259"
         width="87.966942"
         height="72.420151"
         x="337.96259"
         y="385.97223" />
    </mask>
    <linearGradient
       xlink:href="#linearGradient4689"
       id="linearGradient2509"
       gradientUnits="userSpaceOnUse"
       gradientTransform="matrix(0.37209743,0,0,0.37568981,10.389627,29.669694)"
       x1="26.648937"
       y1="20.603781"
       x2="135.66525"
       y2="114.39767" />
    <linearGradient
       xlink:href="#linearGradient4671"
       id="linearGradient2554"
       gradientUnits="userSpaceOnUse"
       gradientTransform="matrix(0.37209743,0,0,0.37568981,10.32128,29.905774)"
       x1="150.96111"
       y1="192.35176"
       x2="112.03144"
       y2="137.27299" />
    <linearGradient
       xlink:href="#linearGradient4689"
       id="linearGradient2566"
       gradientUnits="userSpaceOnUse"
       gradientTransform="matrix(0.562541,0,0,0.567972,-9.399749,-5.305317)"
       x1="26.648937"
       y1="20.603781"
       x2="135.66525"
       y2="114.39767" />
    <linearGradient
       xlink:href="#linearGradient4671"
       id="linearGradient2568"
       gradientUnits="userSpaceOnUse"
       gradientTransform="matrix(0.562541,0,0,0.567972,-9.399749,-5.305317)"
       x1="150.96111"
       y1="192.35176"
       x2="112.03144"
       y2="137.27299" />
    <linearGradient
       xlink:href="#linearGradient4671"
       id="linearGradient2597"
       gradientUnits="userSpaceOnUse"
       gradientTransform="matrix(0.37209743,0,0,0.37568981,60.583008,119.56711)"
       x1="150.96111"
       y1="192.35176"
       x2="112.03144"
       y2="137.27299" />
    <clipPath
       clipPathUnits="userSpaceOnUse"
       id="clipPath2630">
      <path
         style="fill:none;stroke:#000000;stroke-width:0.264583px;stroke-linecap:butt;stroke-linejoin:miter;stroke-opacity:1"
         d="m 125.95146,144.37339 0.0945,10.58333 5.95313,0.66146 13.32366,6.04762 v -7.74851 l -4.53571,-8.22098 -8.78795,-1.6064"
         id="path2632" />
    </clipPath>
    <clipPath
       clipPathUnits="userSpaceOnUse"
       id="clipPath2646">
      <path
         style="fill:none;stroke:#000000;stroke-width:0.264583px;stroke-linecap:butt;stroke-linejoin:miter;stroke-opacity:1"
         d="m 110.73792,183.21044 -0.28348,19.93825 c 0,0 18.52083,-0.75596 18.52083,-1.22842 0,-0.47248 -2.07887,-18.42634 -2.07887,-18.42634"
         id="path2648" />
    </clipPath>
  </defs>
  <metadata
     id="metadata5">
    <rdf:RDF>
      <cc:Work
         rdf:about="">
        <dc:format>image/svg+xml</dc:format>
        <dc:type
           rdf:resource="http://purl.org/dc/dcmitype/StillImage" />
        <dc:title></dc:title>
      </cc:Work>
    </rdf:RDF>
  </metadata>
  <g
     id="g1152"
     style="display:inline"
     transform="translate(-50.26173,-98.922346)">
    <path
       style="fill:#ff0000;fill-opacity:1;stroke:#000000;stroke-width:1;stroke-linecap:butt;stroke-linejoin:miter;stroke-miterlimit:4;stroke-dasharray:none;stroke-opacity:1"
       d="m 156.17554,174.97776 c 0.65803,-9.71854 -2.08248,-31.78113 -5.29603,-36.00602 0,0 -2.68371,14.20415 -7.97591,7.18991 0,0 4.26222,-24.06988 -14.11022,-29.05765 3.39924,27.73159 -32.501896,-3.86075 -9.57236,-17.700191 -52.702491,14.764541 4.39725,30.267081 -42.455782,46.794461 1.559402,-5.52226 0.245785,-9.40629 -2.60447,-12.41411 -0.263135,20.82816 -18.338198,15.90302 4.987411,44.83904 0,0 -22.390932,7.6348 -16.978709,-26.96527 0,0 -11.429891,2.30325 -11.407708,23.50882 0.684732,35.18098 54.247638,52.88676 56.746608,30.15196 1.40156,-12.75085 -37.780403,-33.75068 4.7075,-66.45845 0,0 -15.795632,31.67991 -5.65205,39.68762 0,0 31.40985,-6.46954 14.50289,-24.37436 0,0 11.72342,-3.05911 20.26772,2.78661 8.98758,6.14901 14.81899,21.14488 14.84111,18.01763 z"
       id="path1148" />
  </g>
  <g
     id="layer6"
     style="display:inline"
     transform="translate(1.2007273e-7,-9.2610086)">
    <path
       style="display:inline;fill:url(#linearGradient2509);fill-opacity:1;stroke:#000000;stroke-width:1;stroke-miterlimit:4;stroke-dasharray:none;stroke-opacity:1;image-rendering:auto"
       d="m 56.632116,37.410933 c -3.0319,0.01409 -5.92729,0.272664 -8.47494,0.723469 -7.50505,1.325896 -8.86767,4.10111 -8.86767,9.219076 v 6.759278 h 17.73535 v 2.253092 h -17.73535 -6.65593 c -5.15439,0 -9.66771,3.098084 -11.07943,8.991699 -1.62839,6.755452 -1.70061,10.970963 0,18.02474 1.2607,5.250558 4.2714,8.991698 9.42579,8.991699 h 6.09781 v -8.102865 c 0,-5.853841 5.06489,-11.017414 11.07943,-11.017415 h 17.71468 c 4.93114,0 8.86768,-4.06014 8.86768,-9.01237 V 47.353478 c 0,-4.80638 -4.05473,-8.41691 -8.86768,-9.219076 -3.04667,-0.507156 -6.20785,-0.737557 -9.23974,-0.723469 z m -9.59115,5.43636 c 1.83194,0 3.32796,1.520459 3.32796,3.389974 0,1.862889 -1.49602,3.369304 -3.32796,3.369304 -1.83851,-1e-6 -3.32796,-1.506415 -3.32796,-3.369304 0,-1.869514 1.48945,-3.389974 3.32796,-3.389974 z"
       id="path1948-3" />
    <path
       style="display:inline;fill:url(#linearGradient2554);fill-opacity:1;stroke:#000000;stroke-width:1;stroke-miterlimit:4;stroke-dasharray:none;stroke-opacity:1;image-rendering:auto"
       d="m 76.882934,56.601928 v 7.875488 c 0,6.10576 -5.1765,11.244791 -11.07943,11.244791 h -17.71468 c -4.85235,0 -8.867669,4.152955 -8.867669,9.01237 v 16.887843 c 0,4.80638 4.179479,7.63344 8.867669,9.01237 5.61402,1.65074 10.99756,1.94908 17.71468,0 4.46495,-1.29275 8.86768,-3.89441 8.86768,-9.01237 v -6.759259 h -17.71468 v -2.253096 h 17.71468 8.86768 c 5.15438,0 7.07512,-3.595296 8.86767,-8.991699 1.85164,-5.555513 1.77285,-10.898039 0,-18.024739 -1.27383,-5.131224 -3.70673,-8.991699 -8.86767,-8.991699 z m -9.96322,42.767408 c 1.83851,0 3.32797,1.506424 3.32797,3.369294 -1e-5,1.86952 -1.48946,3.38998 -3.32797,3.38998 -1.83194,0 -3.32796,-1.52046 -3.32796,-3.38998 0,-1.86287 1.49602,-3.369294 3.32796,-3.369294 z"
       id="path1950-1" />
  </g>
  <g
     id="layer2"
     style="display:inline"
     transform="translate(-50.26173,-98.922346)">
    <path
       style="fill:#ff0000;stroke:#000000;stroke-width:1;stroke-linecap:butt;stroke-linejoin:miter;stroke-miterlimit:4;stroke-dasharray:none;stroke-opacity:1"
       d="m 108.19568,215.7299 c 19.17196,2.0558 40.09942,-4.2676 47.15253,-33.1674 -10.21182,5.95761 -23.01733,7.16575 -19.59896,-10.19563 0,0 -32.89307,19.81751 -17.5982,28.16087 15.00187,8.18352 -9.4828,10.01502 -9.95537,15.20216"
       id="path995" />
  </g>
  <g
     id="g1210"
     style="display:inline;opacity:1"
     transform="translate(-50.26173,-98.922345)">
    <path
       style="display:inline;fill:url(#linearGradient2597);fill-opacity:1;stroke:#000000;stroke-width:1;stroke-miterlimit:4;stroke-dasharray:none;stroke-opacity:1;image-rendering:auto"
       d="m 127.14466,146.26327 v 7.87549 c 0,6.10576 -5.1765,11.24479 -11.07943,11.24479 H 98.350554 c -4.85235,0 -8.86767,4.15295 -8.86767,9.01237 v 16.88784 c 0,4.80638 4.17948,7.63344 8.86767,9.01237 5.614016,1.65074 10.997556,1.94908 17.714676,0 4.46495,-1.29275 8.86768,-3.89441 8.86768,-9.01237 v -6.75926 h -17.71468 v -2.2531 h 17.71468 8.86768 c 5.15438,0 7.07512,-3.59529 8.86767,-8.99169 1.85164,-5.55552 1.77285,-10.89804 0,-18.02474 -1.27383,-5.13123 -3.70673,-8.9917 -8.86767,-8.9917 z m -9.96322,42.76741 c 1.83851,0 3.32797,1.50642 3.32797,3.36929 -1e-5,1.86952 -1.48946,3.38998 -3.32797,3.38998 -1.83194,0 -3.32796,-1.52046 -3.32796,-3.38998 0,-1.86287 1.49602,-3.36929 3.32796,-3.36929 z"
       id="path1950-1-4"
       mask="none"
       clip-path="url(#clipPath2646)" />
  </g>
  <g
     id="g1233"
     style="display:inline;opacity:1"
     transform="translate(-50.26173,-98.922345)">
    <path
       style="fill:#ff0000;fill-opacity:1;stroke:#000000;stroke-width:1;stroke-linecap:butt;stroke-linejoin:miter;stroke-miterlimit:4;stroke-dasharray:none;stroke-opacity:1"
       d="m 156.17554,174.97776 c 0.82973,-12.25434 -0.86535,-25.39856 -13.35579,-30.61821 -20.10617,-8.4022 -0.39562,-24.31559 -0.39562,-24.31559 -8.15895,-1.21753 -21.49627,8.04247 -21.49627,8.04247 2.77579,-33.676903 -37.098632,-37.825136 -37.098632,-37.825136 7.180142,12.160626 26.578192,39.976556 -7.06399,55.936976 1.559402,-5.52226 0.245785,-9.40629 -2.60447,-12.41411 -0.263135,20.82816 -18.338198,15.90302 4.987411,44.83904 0,0 -22.390932,7.6348 -16.978709,-26.96527 0,0 -11.429891,2.30325 -11.407708,23.50882 0.684732,35.18098 54.247638,52.88676 56.746608,30.15196 1.40156,-12.75085 -37.780403,-33.75068 4.7075,-66.45845 0,0 -15.795632,31.67991 -5.65205,39.68762 0,0 31.40985,-6.46954 14.50289,-24.37436 0,0 11.72342,-3.05911 20.26772,2.78661 8.98758,6.14901 14.81899,21.14488 14.84111,18.01763 z"
       id="path1231"
       mask="none"
       clip-path="url(#clipPath2630)" />
  </g>
</svg>
